<svg height="511pt" viewBox="1 -136 511.99989 511" width="511pt" xmlns="http://www.w3.org/2000/svg"><path d="m2.171875 129.054688c4.789063 9.195312 6.328125 22.398437 6.023437 33.988281-.289062 10.863281 11.164063 18.117187 20.753907 13.003906 22.699219-12.097656 44.433593-34.578125 44.433593-55.910156 0-21.335938-21.734374-43.8125-44.433593-55.914063-9.589844-5.113281-21.042969 2.140625-20.757813 13.007813.308594 11.585937-1.230468 24.792969-6.019531 33.988281-2.894531 5.5625-2.894531 12.273438 0 17.835938zm0 0" fill="#d97b7d"/><path d="m58.890625 121.828125c-2.039063 0-4.070313-.824219-5.546875-2.453125-2.023438-2.21875-8.0625-4.808594-14.457031-7.554688-3.210938-1.375-6.851563-2.9375-10.703125-4.738281-3.75-1.753906-5.371094-6.21875-3.617188-9.96875 1.753906-3.753906 6.21875-5.375 9.972656-3.621093 3.632813 1.699218 7.003907 3.148437 10.265626 4.542968 8.613281 3.699219 15.417968 6.617188 19.628906 11.242188 2.789062 3.066406 2.566406 7.808594-.496094 10.597656-1.4375 1.308594-3.246094 1.953125-5.046875 1.953125zm0 0" fill="#c77172"/><path d="m31.367188 147.484375c-2.824219 0-5.523438-1.597656-6.800782-4.324219-1.753906-3.753906-.132812-8.214844 3.621094-9.96875 3.847656-1.800781 7.488281-3.363281 10.703125-4.742187 6.390625-2.742188 12.429687-5.332031 14.453125-7.554688 2.789062-3.0625 7.53125-3.285156 10.59375-.496093 3.0625 2.789062 3.285156 7.53125.496094 10.59375-4.210938 4.625-11.015625 7.546874-19.628906 11.242187-3.261719 1.398437-6.632813 2.84375-10.265626 4.542969-1.027343.480468-2.109374.707031-3.171874.707031zm0 0" fill="#c77172"/><path d="m392.363281.5h-222.90625c-66.074219 0-119.636719 53.5625-119.636719 119.636719 0 66.070312 53.5625 119.632812 119.636719 119.632812h222.90625zm0 0" fill="#d97b7d"/><path d="m138.816406 4.46875c-51.226562 13.53125-88.996094 60.183594-88.996094 115.667969 0 66.070312 53.5625 119.632812 119.636719 119.632812h109.390625c-134.960937-31.277343-191.402344-168.144531-140.03125-235.300781zm0 0" fill="#c77172"/><path d="m512 120.136719c0 66.074219-53.5625 119.636719-119.636719 119.636719s-119.636719-53.5625-119.636719-119.636719 53.5625-119.636719 119.636719-119.636719 119.636719 53.5625 119.636719 119.636719zm0 0" fill="#c77172"/><path d="m354.863281 47.046875c0 4.136719-3.351562 7.488281-7.484375 7.488281-4.136718 0-7.488281-3.351562-7.488281-7.488281 0-4.132813 3.351563-7.484375 7.488281-7.484375 4.132813 0 7.484375 3.351562 7.484375 7.484375zm0 0" fill="#f1a18f"/><path d="m392.296875 158.808594c0 4.132812-3.351563 7.484375-7.484375 7.484375-4.136719 0-7.488281-3.351563-7.488281-7.484375 0-4.136719 3.351562-7.488282 7.488281-7.488282 4.132812 0 7.484375 3.351563 7.484375 7.488282zm0 0" fill="#d97b7d"/><path d="m464.847656 70.039062c0 4.132813-3.351562 7.484376-7.484375 7.484376-4.136719 0-7.488281-3.351563-7.488281-7.484376 0-4.136718 3.351562-7.488281 7.488281-7.488281 4.132813 0 7.484375 3.351563 7.484375 7.488281zm0 0" fill="#f1a18f"/><path d="m407.335938 92.800781c0 4.136719-3.351563 7.488281-7.484376 7.488281-4.136718 0-7.488281-3.351562-7.488281-7.488281s3.351563-7.488281 7.488281-7.488281c4.132813 0 7.484376 3.351562 7.484376 7.488281zm0 0" fill="#f1a18f"/><path d="m427.804688 36.007812c0 4.132813-3.351563 7.484376-7.488282 7.484376-4.132812 0-7.484375-3.351563-7.484375-7.484376 0-4.136718 3.351563-7.488281 7.484375-7.488281 4.136719 0 7.488282 3.351563 7.488282 7.488281zm0 0" fill="#d97b7d"/><path d="m313.367188 142.832031c0 4.136719-3.351563 7.488281-7.484376 7.488281-4.136718 0-7.488281-3.351562-7.488281-7.488281 0-4.132812 3.351563-7.484375 7.488281-7.484375 4.132813 0 7.484376 3.351563 7.484376 7.484375zm0 0" fill="#f1a18f"/><path d="m493.222656 129.871094c0 4.136718-3.351562 7.488281-7.484375 7.488281-4.136719 0-7.488281-3.351563-7.488281-7.488281 0-4.136719 3.351562-7.488282 7.488281-7.488282 4.132813 0 7.484375 3.351563 7.484375 7.488282zm0 0" fill="#d97b7d"/><path d="m449.875 177.71875c0 4.136719-3.351562 7.488281-7.484375 7.488281-4.136719 0-7.488281-3.351562-7.488281-7.488281 0-4.132812 3.351562-7.484375 7.488281-7.484375 4.132813 0 7.484375 3.351563 7.484375 7.484375zm0 0" fill="#f1a18f"/><path d="m339.890625 104.925781c0 4.132813-3.351563 7.484375-7.484375 7.484375-4.136719 0-7.488281-3.351562-7.488281-7.484375 0-4.136719 3.351562-7.488281 7.488281-7.488281 4.132812 0 7.484375 3.351562 7.484375 7.488281zm0 0" fill="#d97b7d"/><path d="m366.351562 201.859375c0 4.132813-3.351562 7.488281-7.488281 7.488281-4.132812 0-7.484375-3.355468-7.484375-7.488281 0-4.136719 3.351563-7.488281 7.484375-7.488281 4.136719 0 7.488281 3.351562 7.488281 7.488281zm0 0" fill="#f1a18f"/><path d="m203.542969 45.671875c-1.359375 0-2.625-.058594-3.804688-.1875-4.117187-.457031-7.082031-4.167969-6.625-8.28125.457031-4.117187 4.160157-7.082031 8.28125-6.628906 2.816407.316406 8.195313-.195313 13.886719-.734375 11.878906-1.132813 28.15625-2.679688 42.792969.90625 4.023437.984375 6.488281 5.042968 5.503906 9.066406s-5.046875 6.484375-9.066406 5.503906c-12.179688-2.980468-26.394531-1.632812-37.8125-.546875-5.136719.488281-9.488281.902344-13.15625.902344zm0 0" fill="#c77172"/><path d="m148.5625 188.28125c-4.109375 0-8.625-.292969-13.320312-.59375-7.707032-.496094-16.4375-1.0625-24.304688-.332031-4.125.378906-7.777344-2.65625-8.15625-6.78125s2.65625-7.777344 6.78125-8.15625c9.035156-.832031 18.390625-.230469 26.644531.300781 6.222657.398438 12.105469.777344 16.335938.414062 4.136719-.347656 7.761719 2.707032 8.113281 6.832032.355469 4.128906-2.703125 7.761718-6.828125 8.113281-1.660156.144531-3.421875.203125-5.265625.203125zm0 0" fill="#d97b7d"/><path d="m124.332031 129.871094c0-9.5-9.667969-17.203125-21.597656-17.203125s-21.601563 7.703125-21.601563 17.203125 9.671876 17.203125 21.601563 17.203125 21.597656-7.703125 21.597656-17.203125zm0 0" fill="#f1a18f"/><path d="m241.417969 129.871094c0-9.5-9.671875-17.203125-21.601563-17.203125-11.929687 0-21.601562 7.703125-21.601562 17.203125s9.671875 17.203125 21.601562 17.203125c11.929688 0 21.601563-7.703125 21.601563-17.203125zm0 0" fill="#f1a18f"/><g fill="#495059"><path d="m106.34375 117.058594c-4.140625 0-7.5-3.355469-7.5-7.5v-9.269532c0-4.144531 3.359375-7.5 7.5-7.5s7.5 3.355469 7.5 7.5v9.269532c0 4.144531-3.359375 7.5-7.5 7.5zm0 0"/><path d="m178.691406 116.652344c0-10.761719-7.796875-19.488282-17.417968-19.488282-9.617188 0-17.414063 8.726563-17.414063 19.488282 0 10.765625 7.796875 19.488281 17.414063 19.488281 9.621093 0 17.417968-8.722656 17.417968-19.488281zm0 0"/><path d="m216.207031 117.058594c-4.144531 0-7.5-3.355469-7.5-7.5v-9.269532c0-4.144531 3.355469-7.5 7.5-7.5 4.140625 0 7.5 3.355469 7.5 7.5v9.269532c0 4.144531-3.359375 7.5-7.5 7.5zm0 0"/></g><path d="m231.339844 212.460938c-1.324219 0-2.636719-.074219-3.933594-.253907-4.105469-.566406-6.972656-4.351562-6.40625-8.457031.566406-4.101562 4.351562-6.96875 8.457031-6.402344 2.679688.367188 6.492188-.210937 10.53125-.824218 5.726563-.871094 12.214844-1.855469 18.335938-.472657 4.039062.910157 6.574219 4.925781 5.664062 8.964844-.914062 4.042969-4.925781 6.582031-8.96875 5.664063-3.359375-.757813-8.148437-.027344-12.777343.675781-3.597657.546875-7.289063 1.105469-10.902344 1.105469zm0 0" fill="#c77172"/></svg>